<svg width="59" height="100" viewBox="0 0 59 100" fill="none" xmlns="http://www.w3.org/2000/svg">
<path d="M45.5482 67.3971V67.3977C45.5428 71.5574 43.9623 75.5607 41.1245 78.6021C38.393 81.5297 34.6918 83.357 30.718 83.7513V91.5761C35.6505 91.8475 40.4318 93.3916 44.5946 96.0617L44.5949 96.0619C44.7725 96.176 44.9259 96.3239 45.0463 96.4973C45.1667 96.6707 45.2518 96.8661 45.2967 97.0723C45.3416 97.2785 45.3455 97.4916 45.308 97.6994C45.2706 97.9071 45.1926 98.1055 45.0785 98.2831C44.9644 98.4607 44.8165 98.6141 44.6431 98.7345C44.4697 98.8549 44.2743 98.94 44.0681 98.9849C43.8618 99.0298 43.6487 99.0337 43.441 98.9962C43.2333 98.9588 43.0349 98.8808 42.8573 98.7667C38.7535 96.1399 33.9831 94.7439 29.1105 94.7439C24.238 94.7439 19.4676 96.1399 15.3638 98.7667L45.5482 67.3971ZM45.5482 67.3971C45.5482 66.9708 45.3789 66.5619 45.0774 66.2605C44.776 65.959 44.3671 65.7897 43.9408 65.7897L43.9402 65.7897M45.5482 67.3971L43.9402 65.7897M43.9402 65.7897C40.639 65.7938 37.4152 66.7904 34.6877 68.6502C32.2821 70.2905 30.3605 72.5354 29.1105 75.1498M43.9402 65.7897L29.1105 75.1498M29.1105 75.1498C27.8606 72.5354 25.939 70.2905 23.5334 68.6502C20.8058 66.7904 17.5821 65.7938 14.2809 65.7897H14.2803C13.854 65.7897 13.4451 65.959 13.1437 66.2605C12.8422 66.5619 12.6729 66.9708 12.6729 67.3971L12.6729 67.3977C12.6783 71.5574 14.2588 75.5607 17.0966 78.6021C19.8281 81.5297 23.5293 83.357 27.5031 83.7513V91.5761C22.5706 91.8475 17.7893 93.3916 13.6265 96.0617L13.6262 96.0619C13.2675 96.2923 13.0151 96.6557 12.9244 97.0723C12.8337 97.4889 12.9122 97.9244 13.1426 98.2831C13.373 98.6417 13.7364 98.8942 14.153 98.9849C14.5693 99.0756 15.0046 98.9972 15.3631 98.7672L29.1105 75.1498ZM44.7239 66.614C44.5162 66.4063 44.2345 66.2897 43.9408 66.2897L45.0482 67.3971C45.0482 67.1034 44.9316 66.8217 44.7239 66.614ZM34.5956 72.8822C36.6584 70.8194 39.34 69.4993 42.2207 69.1172C41.8386 71.9979 40.5185 74.6795 38.4557 76.7423C36.393 78.8051 33.7114 80.1252 30.8307 80.5072C31.2128 77.6266 32.5329 74.945 34.5956 72.8822ZM19.7654 76.7423C17.7026 74.6795 16.3825 71.9979 16.0004 69.1172C18.8811 69.4993 21.5627 70.8194 23.6255 72.8822C25.6882 74.945 27.0083 77.6266 27.3904 80.5072C24.5097 80.1252 21.8281 78.8051 19.7654 76.7423Z" fill="#337A5B" stroke="#337A5B"/>
<path d="M29.11 45.9607H29.1106C32.4432 45.9607 35.701 44.9725 38.4719 43.121C41.2429 41.2695 43.4026 38.6378 44.6779 35.5589C45.9533 32.48 46.2869 29.092 45.6368 25.8234C44.9866 22.5548 43.3818 19.5525 41.0253 17.1959C38.6688 14.8394 35.6664 13.2346 32.3978 12.5845C29.1292 11.9343 25.7413 12.268 22.6623 13.5433C19.5834 14.8186 16.9518 16.9783 15.1003 19.7493C13.2488 22.5203 12.2605 25.778 12.2605 29.1107L12.2605 29.1112C12.2656 33.5785 14.0424 37.8613 17.2012 41.0201C20.36 44.1789 24.6428 45.9557 29.11 45.9607ZM29.1109 15.4757C31.8076 15.4757 34.4437 16.2754 36.6859 17.7736C38.9282 19.2719 40.6758 21.4014 41.7078 23.8929C42.7398 26.3844 43.0098 29.126 42.4837 31.771C41.9576 34.416 40.6589 36.8455 38.752 38.7524C36.8451 40.6593 34.4155 41.9579 31.7706 42.484C29.1256 43.0101 26.384 42.7401 23.8925 41.7081C21.401 40.6761 19.2715 38.9284 17.7733 36.6861C16.275 34.4438 15.4754 31.8077 15.4753 29.1109C15.4795 25.4959 16.9175 22.0301 19.4737 19.4739C22.03 16.9177 25.4958 15.4798 29.1109 15.4757Z" fill="#337A5B" stroke="#337A5B"/>
<path d="M44.9483 47.2218C45.0976 47.371 45.2748 47.4895 45.4699 47.5702C45.6649 47.651 45.8739 47.6926 46.085 47.6926C46.2961 47.6926 46.5051 47.651 46.7002 47.5702C46.8952 47.4894 47.0724 47.371 47.2217 47.2218C47.3709 47.0725 47.4893 46.8953 47.5701 46.7003C47.6509 46.5052 47.6925 46.2962 47.6925 46.0851C47.6925 45.874 47.6509 45.665 47.5701 45.47C47.4893 45.2749 47.3709 45.0977 47.2216 44.9485L47.2216 44.9484L44.6902 42.4171C44.6902 42.4171 44.6902 42.4171 44.6902 42.4171C44.5409 42.2678 44.3637 42.1494 44.1687 42.0687C43.9736 41.9879 43.7646 41.9463 43.5535 41.9463C43.3424 41.9463 43.1334 41.9879 42.9384 42.0686C42.7433 42.1494 42.5661 42.2678 42.4169 42.4171C42.2676 42.5664 42.1492 42.7436 42.0684 42.9386C41.9876 43.1336 41.946 43.3427 41.946 43.5537C41.946 43.7648 41.9876 43.9739 42.0684 44.1689C42.1492 44.3639 42.2676 44.5411 42.4169 44.6904L42.4169 44.6904L44.9483 47.2218ZM44.9483 47.2218L45.2981 46.872L44.9484 47.2218L44.9483 47.2218Z" fill="#337A5B" stroke="#337A5B"/>
<path d="M15.8043 13.531L15.8043 13.531L13.2728 10.9996C13.2728 10.9996 13.2728 10.9996 13.2728 10.9996C12.9713 10.6982 12.5625 10.5288 12.1361 10.5288C11.7098 10.5288 11.301 10.6982 10.9995 10.9996C10.698 11.3011 10.5287 11.71 10.5287 12.1363C10.5287 12.5626 10.698 12.9715 10.9995 13.2729L10.9995 13.2729L13.531 15.8043C13.531 15.8043 13.531 15.8043 13.531 15.8043C13.6802 15.9536 13.8575 16.072 14.0525 16.1528C14.2475 16.2336 14.4565 16.2752 14.6676 16.2752C14.8787 16.2752 15.0878 16.2336 15.2828 16.1528C15.4778 16.072 15.655 15.9536 15.8043 15.8044C15.9535 15.6551 16.072 15.4779 16.1527 15.2829C16.2335 15.0878 16.2751 14.8788 16.2751 14.6677C16.2751 14.4566 16.2335 14.2476 16.1528 14.0525C16.072 13.8575 15.9536 13.6803 15.8043 13.531Z" fill="#337A5B" stroke="#337A5B"/>
<path d="M44.9483 10.9996L44.9483 10.9996L42.4169 13.5311L42.4169 13.5311C42.1154 13.8326 41.946 14.2414 41.946 14.6678C41.946 15.0941 42.1154 15.503 42.4169 15.8044C42.7183 16.1059 43.1272 16.2752 43.5535 16.2752C43.9799 16.2752 44.3887 16.1059 44.6902 15.8044C44.6902 15.8044 44.6902 15.8044 44.6902 15.8044L47.2216 13.2729C47.5231 12.9715 47.6925 12.5626 47.6925 12.1363C47.6925 11.71 47.5231 11.3011 47.2217 10.9996C46.9202 10.6982 46.5113 10.5288 46.085 10.5288C45.6587 10.5288 45.2498 10.6982 44.9483 10.9996Z" fill="#337A5B" stroke="#337A5B"/>
<path d="M15.8043 42.4171L15.8042 42.417C15.5027 42.1157 15.0939 41.9464 14.6676 41.9464C14.2414 41.9464 13.8325 42.1157 13.5311 42.417L13.531 42.4171L10.9995 44.9485L10.9995 44.9485C10.698 45.2499 10.5287 45.6588 10.5287 46.0851C10.5287 46.5114 10.698 46.9203 10.9995 47.2218C11.301 47.5232 11.7098 47.6926 12.1361 47.6926C12.5625 47.6926 12.9713 47.5232 13.2728 47.2218L15.8043 44.6904C15.8043 44.6904 15.8043 44.6904 15.8043 44.6904C15.9536 44.5412 16.072 44.364 16.1528 44.1689C16.2335 43.9739 16.2751 43.7649 16.2751 43.5538C16.2751 43.3427 16.2335 43.1336 16.1528 42.9386C16.072 42.7436 15.9536 42.5664 15.8043 42.4171Z" fill="#337A5B" stroke="#337A5B"/>
<path d="M56.1138 27.5032H49.5361C49.1098 27.5032 48.701 27.6726 48.3995 27.974C48.0981 28.2755 47.9287 28.6843 47.9287 29.1107C47.9287 29.537 48.0981 29.9458 48.3995 30.2473C48.701 30.5487 49.1098 30.7181 49.5361 30.7181H56.1138C56.5401 30.7181 56.9489 30.5487 57.2504 30.2473C57.5518 29.9458 57.7212 29.537 57.7212 29.1107C57.7212 28.6843 57.5518 28.2755 57.2504 27.974C56.9489 27.6726 56.5401 27.5032 56.1138 27.5032Z" fill="#337A5B" stroke="#337A5B"/>
<path d="M8.68504 27.5032H2.10742C1.68111 27.5032 1.27225 27.6726 0.9708 27.974C0.669348 28.2755 0.5 28.6843 0.5 29.1107C0.5 29.537 0.669347 29.9458 0.9708 30.2473C1.27225 30.5487 1.68111 30.7181 2.10742 30.7181H8.68504C9.11135 30.7181 9.52021 30.5487 9.82166 30.2473C10.1231 29.9458 10.2925 29.537 10.2925 29.1107C10.2925 28.6843 10.1231 28.2755 9.82166 27.974C9.52021 27.6726 9.11136 27.5032 8.68504 27.5032Z" fill="#337A5B" stroke="#337A5B"/>
<path d="M27.5032 49.5362V56.1138C27.5032 56.5401 27.6725 56.949 27.974 57.2504C28.2754 57.5519 28.6843 57.7212 29.1106 57.7212C29.5369 57.7212 29.9458 57.5519 30.2472 57.2504C30.5487 56.949 30.718 56.5401 30.718 56.1138V49.5362C30.718 49.1099 30.5487 48.701 30.2472 48.3996C29.9458 48.0981 29.5369 47.9288 29.1106 47.9288C28.6843 47.9288 28.2754 48.0981 27.974 48.3996C27.6725 48.701 27.5032 49.1099 27.5032 49.5362Z" fill="#337A5B" stroke="#337A5B"/>
<path d="M29.1106 10.2925C29.5369 10.2925 29.9458 10.1232 30.2472 9.82173C30.5487 9.52028 30.718 9.11143 30.718 8.68511V2.10742C30.718 1.68111 30.5487 1.27225 30.2472 0.970803C29.9458 0.669353 29.5369 0.5 29.1106 0.5C28.6843 0.5 28.2754 0.669353 27.974 0.970803C27.6725 1.27225 27.5032 1.68111 27.5032 2.10742V8.68497C27.5032 8.68498 27.5032 8.685 27.5032 8.68501C27.5032 8.8961 27.5447 9.10512 27.6255 9.30015C27.7063 9.49518 27.8247 9.6724 27.9739 9.82168C28.1232 9.97096 28.3004 10.0894 28.4954 10.1702C28.6905 10.251 28.8995 10.2925 29.1106 10.2925Z" fill="#337A5B" stroke="#337A5B"/>
</svg>
